<?xml version="1.0" standalone="no"?>
<!DOCTYPE svg PUBLIC "-//W3C//DTD SVG 20010904//EN"
 "http://www.w3.org/TR/2001/REC-SVG-20010904/DTD/svg10.dtd">
<svg version="1.0" xmlns="http://www.w3.org/2000/svg"
 width="512.000000pt" height="512.000000pt" viewBox="0 0 512.000000 512.000000"
 preserveAspectRatio="xMidYMid meet">
<metadata>
Created by potrace 1.11, written by Peter Selinger 2001-2013
</metadata>
<g transform="translate(0.000000,512.000000) scale(0.100000,-0.100000)"
fill="#000000" stroke="none">
<path d="M2236 5094 c-344 -44 -725 -179 -1016 -359 -540 -335 -940 -862
-1115 -1470 -59 -204 -100 -477 -93 -621 l3 -70 490 342 c270 188 491 349 493
358 2 8 -51 218 -118 467 -66 248 -119 453 -117 456 3 2 257 -64 565 -147 309
-82 566 -150 573 -150 6 0 154 100 328 222 174 122 323 222 331 222 8 0 157
-100 331 -222 174 -122 322 -222 328 -222 7 0 264 68 573 150 308 83 562 149
565 147 2 -3 -51 -208 -117 -456 -67 -249 -120 -459 -118 -467 2 -9 224 -170
493 -358 l490 -342 3 70 c7 144 -34 417 -93 621 -92 318 -255 634 -463 895
-165 207 -416 428 -652 575 -297 184 -675 316 -1030 360 -154 19 -482 18 -634
-1z"/>
<path d="M2445 3093 c-279 -59 -468 -333 -426 -614 36 -235 228 -425 463 -460
294 -43 574 165 619 460 43 285 -148 557 -433 615 -93 19 -131 19 -223 -1z"/>
<path d="M10 2453 c0 -412 173 -945 430 -1323 129 -190 347 -427 520 -564 373
-295 805 -478 1280 -542 167 -22 473 -22 640 0 475 64 907 247 1280 542 47 38
141 124 210 193 287 287 486 610 615 996 79 237 129 523 123 703 l-3 93 -90
-63 c-289 -199 -892 -622 -903 -632 -11 -11 10 -99 114 -485 69 -260 124 -475
121 -477 -3 -3 -269 65 -591 151 l-585 156 -300 -210 c-165 -116 -305 -211
-311 -211 -6 0 -146 95 -311 211 l-300 210 -585 -156 c-322 -86 -588 -154
-591 -151 -3 2 52 217 121 477 104 386 125 474 114 485 -17 16 -943 663 -985
688 -10 5 -13 -15 -13 -91z"/>
</g>
</svg>
